<svg xmlns="http://www.w3.org/2000/svg" width="200" height="200" viewBox="0 0 200 200" version="1.1"><path d="M 19 154.500 L 19 181 45.500 181 L 72 181 72 154.500 L 72 128 45.500 128 L 19 128 19 154.500 M 74 154.500 L 74 181 100.500 181 L 127 181 127 154.500 L 127 128 100.500 128 L 74 128 74 154.500 M 128 154.517 L 128 181.033 154.250 180.767 L 180.500 180.500 180.767 154.250 L 181.033 128 154.517 128 L 128 128 128 154.517" stroke="none" fill="#da3a4a" fill-rule="evenodd"/><path d="M 74 45.500 L 74 72 100.500 72 L 127 72 127 45.500 L 127 19 100.500 19 L 74 19 74 45.500 M 128 45.500 L 128 72 154.500 72 L 181 72 181 45.500 L 181 19 154.500 19 L 128 19 128 45.500 M 128 100 L 128 127 154.500 127 L 181 127 181 100 L 181 73 154.500 73 L 128 73 128 100" stroke="none" fill="#1196a8" fill-rule="evenodd"/></svg>